# xmcd CD database file
#
# Track frame offsets:
#	150
#	13663
#	25756
#	38803
#	51176
#	63218
#	74204
#	85201
#	99339
#	113018
#
# Disc length: 1640 seconds
#
# Revision: 3
# Processed by: cddbd v1.5.2PL0 Copyright (c) Steve Scherf et al.
# Submitted via: CDex 1.51
#
DISCID=7d06660a
DTITLE=Various Artist - The Greatest Country Music Collection Ever [CD2]
DYEAR=2005
DGENRE=Country
TTITLE0=Tammy Wynette - D-I-V-O-R-C-E
TTITLE1=Johnny Paycheck - Take This Job and Shove It
TTITLE2=Ray Price - City Lights
TTITLE3=Charlie Rich - Behind Closed Doors
TTITLE4=Freddy Fender - Before the Next Teardrop Falls (live)
TTITLE5=Roger Miller - King of the Road
TTITLE6=Vern Gosdin - Set 'Em Up Joe
TTITLE7=Lee Greenwood - Dixie Road
TTITLE8=George Jones and Tammy Wynette - Golden Ring
TTITLE9=Johnny Cash - Ballad of a Teenage Queen
EXTD=YEAR: 2005
EXTT0=
EXTT1=
EXTT2=
EXTT3=
EXTT4=
EXTT5=
EXTT6=
EXTT7=
EXTT8=
EXTT9=
PLAYORDER=
